2.5Hzlow3min_grf.mot
version=1
nRows=30
nColumns 19
inDegrees=yes
endheader
time	1_ground_force_vx	1_ground_force_vy	1_ground_force_vz	1_ground_force_px	1_ground_force_py	1_ground_force_pz	1_ground_torque_x	1_ground_torque_y	1_ground_torque_z	2_ground_force_vx	2_ground_force_vy	2_ground_force_vz	2_ground_force_px	2_ground_force_py	2_ground_force_pz	2_ground_torque_x	2_ground_torque_y	2_ground_torque_z
            0.005000	            2.875371	           16.781977	           -3.833035	           -0.228359	            0.005771	           -0.299590	           -0.073103	           -0.426664	            0.097451	            9.258414	           17.898059	           -0.503368	           -0.250359	            0.005624	           -0.710150	           -0.047711	           -0.092233	            0.002594
            0.005500	            2.967125	           15.159997	           -3.931931	           -0.231797	            0.005777	           -0.301290	           -0.079123	           -0.404266	            0.104851	            9.166873	           17.343936	           -0.129874	           -0.258454	            0.005601	           -0.711878	           -0.051967	           -0.098324	            0.000736
            0.006000	            2.646844	           14.257820	           -3.751576	           -0.238497	            0.005780	           -0.302350	           -0.079363	           -0.427504	            0.112487	            9.032202	           15.686931	           -0.370368	           -0.251750	            0.005623	           -0.711282	           -0.075247	           -0.130686	            0.003086
            0.006500	            2.417892	           12.815650	           -3.757191	           -0.237625	            0.005797	           -0.306121	           -0.078126	           -0.414094	            0.121401	            8.798617	           15.501937	           -0.370926	           -0.257947	            0.005603	           -0.711863	           -0.031933	           -0.056262	            0.001346
            0.007000	            2.601411	           12.635224	           -3.712563	           -0.233518	            0.005788	           -0.303889	           -0.080134	           -0.389214	            0.114361	            8.755090	           14.581026	           -0.374191	           -0.255716	            0.005632	           -0.717636	           -0.040148	           -0.066864	            0.001716
            0.007500	            2.190044	           12.813247	           -3.206351	           -0.228624	            0.005766	           -0.298647	           -0.062034	           -0.362941	            0.090821	            8.616575	           14.027739	           -0.282246	           -0.265951	            0.005627	           -0.726661	           -0.005411	           -0.008810	            0.000177
            0.008000	            2.282041	           11.731474	           -3.165360	           -0.230341	            0.005780	           -0.301810	           -0.072706	           -0.373764	            0.100848	            8.573610	           12.923517	           -0.520809	           -0.251510	            0.005648	           -0.717830	           -0.047047	           -0.070917	            0.002858
            0.008500	            2.145162	           11.910533	           -2.889110	           -0.237567	            0.005781	           -0.302536	           -0.064217	           -0.356549	            0.086487	            8.059653	           12.552857	           -0.381120	           -0.256408	            0.005646	           -0.722312	           -0.014545	           -0.022654	            0.000688
            0.009000	            1.824815	           11.368888	           -2.707209	           -0.230166	            0.005727	           -0.289492	           -0.066913	           -0.416881	            0.099270	            8.017311	           11.264821	           -0.714196	           -0.258954	            0.005622	           -0.718272	            0.018618	            0.026159	           -0.001658
            0.009500	            1.413597	           10.104983	           -2.253037	           -0.237292	            0.005750	           -0.295191	           -0.063164	           -0.451520	            0.100672	            7.833337	           10.342566	           -0.482761	           -0.254526	            0.005658	           -0.723909	           -0.051456	           -0.067939	            0.003171
            0.010000	            1.505835	           10.824883	           -1.975037	           -0.230203	            0.005761	           -0.297385	           -0.052398	           -0.376669	            0.068725	            7.787111	           10.158583	           -0.577255	           -0.266150	            0.005615	           -0.723622	           -0.050035	           -0.065272	            0.003709
            0.010500	            1.277725	           11.003139	           -1.515136	           -0.219550	            0.005691	           -0.280689	           -0.045896	           -0.395237	            0.054424	            6.995918	            8.683023	           -0.722957	           -0.232311	            0.006130	           -0.833667	           -1.017126	            0.715751	           -0.279758
            0.011000	            0.958583	           10.098996	           -0.876222	           -0.224724	            0.005723	           -0.288244	           -0.032809	           -0.345652	            0.029990	            6.762374	            8.497694	           -0.629658	           -0.232311	            0.006130	           -0.833667	           -0.979369	            0.677672	           -0.166808
            0.011500	            0.502529	            9.554178	            0.039715	           -0.233013	            0.005581	           -0.255695	            0.219713	           -0.379510	            0.206971	            6.528913	            8.311696	           -0.348647	           -0.232311	            0.006130	           -0.833667	           -0.735014	            0.631492	           -0.223631
            0.012000	            0.183275	            7.388765	            0.535651	           -0.233013	            0.005581	           -0.255695	            0.312101	           -0.379461	            0.155539	            5.967961	            7.942039	           -0.537434	           -0.232311	            0.006130	           -0.833667	           -0.753568	            0.565323	           -0.242709
            0.012500	            0.274614	            9.912306	            0.592101	           -0.233013	            0.005581	           -0.255695	            0.289670	           -0.388503	            0.121780	            5.407174	            7.571043	           -0.350797	           -0.232311	            0.006130	           -0.833667	           -0.640346	            0.433123	           -0.167829
            0.013000	            0.549594	            8.470823	            0.447667	           -0.233013	            0.005581	           -0.255695	            0.296630	           -0.379379	            0.189975	            4.287367	            6.278447	           -0.495702	           -0.232311	            0.006130	           -0.833667	           -0.583623	            0.329414	           -0.187074
            0.013500	            0.685089	            9.014989	           -0.329906	           -0.233013	            0.005581	           -0.255695	            0.160216	           -0.387968	            0.045737	            3.302190	            6.643191	           -0.493970	           -0.232311	            0.006130	           -0.833667	           -0.545575	            0.206396	           -0.112128
            0.014000	            0.960227	            9.195112	           -0.283960	           -0.233013	            0.005581	           -0.255695	            0.252268	           -0.388225	            0.151220	            2.133560	            5.902704	           -0.589956	           -0.232311	            0.006130	           -0.833667	           -0.507262	           -0.001361	           -0.131736
            0.014500	            0.685739	            9.194075	           -0.053997	           -0.233013	            0.005581	           -0.255695	            0.148972	           -0.370521	            0.290209	            0.870627	            5.345524	           -0.544461	           -0.232311	            0.006130	           -0.833667	           -0.431542	           -0.152602	           -0.056907
            0.015000	            0.732298	            9.012639	            0.220251	           -0.233013	            0.005581	           -0.255695	            0.268619	           -0.333252	            0.235639	            0.447608	            5.712633	           -0.636824	           -0.232311	            0.006130	           -0.833667	           -0.281166	           -0.171166	           -0.000487
            0.015500	            0.137525	            9.370893	            0.727691	           -0.233013	            0.005581	           -0.255695	            0.209175	           -0.314872	            0.172844	            0.547248	            4.055971	           -0.736633	           -0.232311	            0.006130	           -0.833667	           -0.300061	           -0.151992	           -0.094663
            0.016000	            0.184087	            7.927990	            0.904818	           -0.233013	            0.005581	           -0.255695	            0.258520	           -0.379377	            0.136855	            0.734106	            4.239792	           -0.454487	           -0.232311	            0.006130	           -0.833667	           -0.431441	           -0.171776	            0.018427
            0.016500	            0.229718	            8.468992	            0.861167	           -0.233013	            0.005581	           -0.255695	            0.278945	           -0.342461	            0.157696	            1.343779	            4.058177	           -0.549260	           -0.232311	            0.006130	           -0.833667	           -0.356649	           -0.076910	           -0.000118
            0.017000	            0.594946	            9.913351	            0.362025	           -0.233013	            0.005581	           -0.255695	            0.186699	           -0.341925	            0.079524	            1.480299	            5.163909	           -0.639233	           -0.232311	            0.006130	           -0.833667	           -0.356555	           -0.105201	           -0.019069
            0.017500	            0.685868	            9.734479	            0.040033	           -0.233013	            0.005581	           -0.255695	            0.200933	           -0.351860	            0.252545	            1.337941	            5.714341	           -0.214850	           -0.232311	            0.006130	           -0.833667	           -0.318865	           -0.133558	            0.018514
            0.018000	            0.915148	            9.373992	            0.037919	           -0.233013	            0.005581	           -0.255695	            0.182185	           -0.360599	            0.168350	            0.829321	            3.870327	           -0.033489	           -0.232311	            0.006130	           -0.833667	           -0.262169	           -0.218698	            0.093587
            0.018500	            0.915445	            7.751601	            0.030962	           -0.233013	            0.005581	           -0.255695	            0.314681	           -0.369897	            0.186837	            0.031461	            4.236417	           -0.219548	           -0.232311	            0.006130	           -0.833667	           -0.262006	           -0.275078	           -0.000866
            0.019000	            0.595437	            8.470832	            0.447553	           -0.233013	            0.005581	           -0.255695	            0.240222	           -0.360721	            0.154554	           -0.529450	            3.866426	           -0.314479	           -0.232311	            0.006130	           -0.833667	           -0.280706	           -0.294186	            0.036775
            0.019500	            0.046313	            8.649222	            0.862395	           -0.233013	            0.005581	           -0.255695	            0.203643	           -0.425589	            0.112105	           -0.248515	            3.868780	           -0.690024	           -0.232311	            0.006130	           -0.833667	           -0.318610	           -0.199861	            0.055978
